<?xml version="1.0" encoding="UTF-8"?>
<svg id="b" data-name="Layer 2" xmlns="http://www.w3.org/2000/svg" viewBox="0 0 604.457 254.714">
  <g id="c" data-name="Layer 1">
    <g>
      <g>
        <g>
          <path d="M239.935,156.977c-16.561,0-32.131-6.449-43.841-18.159l-8.761-8.761c-9.985-9.985-26.233-9.985-36.219,0l-8.761,8.761c-11.71,11.71-27.28,18.159-43.84,18.159s-32.13-6.449-43.841-18.159c-24.174-24.174-24.174-63.508,0-87.682,11.71-11.71,27.28-18.159,43.841-18.159s32.13,6.449,43.84,18.159l8.761,8.761c9.985,9.986,26.233,9.985,36.219,0l8.761-8.761c11.71-11.71,27.28-18.159,43.841-18.159s32.131,6.449,43.841,18.159,18.159,27.28,18.159,43.841-6.449,32.131-18.159,43.841c-11.71,11.71-27.28,18.159-43.841,18.159ZM98.513,56.977c-10.15,0-19.693,3.952-26.87,11.13-14.816,14.816-14.816,38.924,0,53.74,7.177,7.178,16.72,11.13,26.87,11.13s19.692-3.952,26.87-11.13l8.761-8.761c19.344-19.343,50.817-19.344,70.16,0l8.761,8.761c14.816,14.816,38.924,14.816,53.74,0,14.816-14.816,14.816-38.924,0-53.74s-38.924-14.816-53.74,0l-8.761,8.761c-19.344,19.342-50.816,19.344-70.16,0l-8.761-8.761c-7.177-7.178-16.72-11.13-26.87-11.13Z" fill="#0068ec"/>
          <path d="M12,156.977c-6.627,0-12-5.373-12-12V12C0,5.373,5.373,0,12,0s12,5.373,12,12V144.977c0,6.627-5.373,12-12,12Z" fill="#0068ec"/>
          <path d="M326.229,193.4c-6.627,0-12-5.373-12-12V96.642c0-33.204,27.014-60.218,60.219-60.218s60.218,27.014,60.218,60.218-27.014,60.218-60.218,60.218h-13.628c-6.627,0-12-5.373-12-12s5.373-12,12-12h13.628c19.971,0,36.218-16.247,36.218-36.218s-16.247-36.218-36.218-36.218-36.219,16.247-36.219,36.218v84.759c0,6.627-5.373,12-12,12Z" fill="#0068ec"/>
        </g>
        <g>
          <path d="M413.361,201.445h-23.962c-2.011,0-3.587,1.616-3.587,3.679,0,2.011,1.576,3.587,3.587,3.587h19.322c-2.277,12.388-12.918,21.543-25.359,21.543-14.553,0-25.953-11.842-25.953-26.961s11.4-27.051,25.953-27.051c8.209,0,15.734,3.827,20.646,10.5l.03,.041,.033,.039c.8,.935,1.914,1.493,2.978,1.493,2.165,0,3.862-1.656,3.862-3.771,0-.857-.377-1.805-1.034-2.605-6.317-8.239-15.98-12.963-26.515-12.963-9.092,0-17.577,3.547-23.893,9.986-6.309,6.433-9.784,15.074-9.784,24.331s3.475,17.898,9.784,24.331c6.315,6.44,14.801,9.986,23.893,9.986,8.964,0,17.382-3.495,23.703-9.841,6-6.024,9.602-14.227,9.882-22.508v-.024s0-.024,0-.024c0-2.15-1.542-3.771-3.587-3.771Z" fill="#f68400"/>
          <path d="M446.49,189.85c0-1.96-1.535-3.496-3.495-3.496-11.235,0-18.495,7.619-18.495,19.409v27.803c0,2.114,1.616,3.77,3.678,3.77,2.028,0,3.678-1.691,3.678-3.77v-27.803c0-7.775,4.164-12.417,11.138-12.417,1.862,0,3.495-1.634,3.495-3.496Z" fill="#f68400"/>
          <path d="M471.545,186.354c-14.218,0-25.355,11.257-25.355,25.628s11.137,25.628,25.355,25.628,25.263-11.257,25.263-25.628-11.097-25.628-25.263-25.628Zm17.905,25.628c0,10.451-7.865,18.638-17.905,18.638-9.924,0-17.998-8.361-17.998-18.638,0-10.45,7.906-18.637,17.998-18.637,10.04,0,17.905,8.186,17.905,18.637Z" fill="#f68400"/>
          <path d="M542.61,186.629c-2.063,0-3.678,1.616-3.678,3.678v24.968c0,9.465-5.214,15.345-13.608,15.345s-13.606-5.88-13.606-15.345v-24.968c0-2.063-1.616-3.678-3.679-3.678-2.097,0-3.678,1.581-3.678,3.678v24.877c0,13.414,8.425,22.427,20.964,22.427s20.965-9.013,20.965-22.427v-24.877c0-2.063-1.616-3.678-3.678-3.678Z" fill="#f68400"/>
          <path d="M579.286,186.354c-6.912,0-13.427,2.849-18.089,7.775v-3.822c0-2.063-1.616-3.678-3.678-3.678-2.097,0-3.678,1.581-3.678,3.678v60.637c0,2.184,1.547,3.77,3.678,3.77,2.063,0,3.678-1.656,3.678-3.77v-21.061c4.624,4.954,11.026,7.727,18.089,7.727,14.115,0,25.171-11.257,25.171-25.628s-11.057-25.628-25.171-25.628Zm17.722,25.628c0,10.451-7.865,18.638-17.906,18.638s-17.906-8.187-17.906-18.638v-.799c.352-10.004,8.213-17.838,17.906-17.838,10.041,0,17.906,8.186,17.906,18.637Z" fill="#f68400"/>
        </g>
      </g>
      <g>
        <path d="M556.145,157.402c-6.627,0-12-5.373-12-12v-41.964c0-8.337-3.447-16.546-9.458-22.521-5.813-5.779-13.363-8.956-21.275-8.956-.059,0-.117,0-.176,0-16.703,.1-30.399,13.77-30.529,30.472-.063,7.993,3.108,15.626,8.931,21.493,5.974,6.021,14.191,9.475,22.545,9.475h6.118c6.627,0,12,5.373,12,12s-5.373,12-12,12h-6.118c-14.706,0-29.134-6.04-39.582-16.57-10.362-10.443-16.006-24.146-15.894-38.585,.233-29.754,24.631-54.106,54.387-54.284,.106,0,.215,0,.322,0,14.296,0,27.847,5.651,38.191,15.936,10.51,10.447,16.538,24.859,16.538,39.541v41.964c0,6.627-5.373,12-12,12Z" fill="#f68400"/>
        <circle cx="446.705" cy="145.402" r="12" fill="#f68400"/>
        <g>
          <path d="M592.457,157.402c-6.627,0-12-5.373-12-12V60.565c0-6.627,5.373-12,12-12s12,5.373,12,12v84.838c0,6.627-5.373,12-12,12Z" fill="#f68400"/>
          <circle cx="592.398" cy="27.527" r="12" fill="#f68400"/>
        </g>
      </g>
    </g>
  </g>
</svg>