<?xml version="1.0" encoding="UTF-8"?>
<svg id="b" data-name="Layer 2" xmlns="http://www.w3.org/2000/svg" viewBox="0 0 635.173 193.682">
  <g id="c" data-name="Layer 1">
    <g>
      <g>
        <path d="M96.159,156.977c-16.561,0-32.13-6.449-43.84-18.159-11.71-11.71-18.159-27.28-18.159-43.841s6.449-32.131,18.159-43.841c24.174-24.174,63.507-24.174,87.681,0l8.761,8.761c4.837,4.838,11.269,7.502,18.109,7.502s13.272-2.664,18.109-7.502l8.761-8.761c24.174-24.172,63.508-24.172,87.682,0,24.174,24.174,24.174,63.508,0,87.682-24.174,24.174-63.508,24.174-87.682,0l-8.761-8.761c-4.837-4.837-11.269-7.501-18.109-7.501s-13.272,2.664-18.109,7.502h0l-8.761,8.76c-11.709,11.71-27.279,18.159-43.84,18.159Zm0-99.981c-9.73,0-19.461,3.703-26.869,11.111-14.816,14.816-14.816,38.924,0,53.74,7.177,7.178,16.72,11.13,26.869,11.13s19.692-3.952,26.87-11.13l8.762-8.76c9.369-9.37,21.827-14.531,35.079-14.531s25.71,5.16,35.08,14.53l8.761,8.761c14.816,14.816,38.924,14.816,53.74,0,14.816-14.816,14.816-38.924,0-53.74s-38.924-14.814-53.74,0l-8.761,8.761c-9.37,9.37-21.828,14.531-35.08,14.531s-25.71-5.161-35.08-14.531l-8.761-8.761c-7.408-7.408-17.139-11.111-26.87-11.111Z" fill="#0068ec"/>
        <path d="M12,156.977c-6.627,0-12-5.373-12-12V12C0,5.373,5.373,0,12,0s12,5.373,12,12V144.977c0,6.627-5.373,12-12,12Z" fill="#0068ec"/>
        <path d="M321.712,193.682c-6.627,0-12-5.373-12-12V96.923c0-16.078,6.265-31.198,17.643-42.575,11.377-11.377,26.497-17.643,42.575-17.643,33.204,0,60.218,27.014,60.218,60.218s-27.014,60.218-60.218,60.218h-17.058c-6.627,0-12-5.373-12-12s5.373-12,12-12h17.058c19.971,0,36.218-16.247,36.218-36.218s-16.247-36.218-36.218-36.218c-9.668,0-18.761,3.77-25.605,10.613-6.844,6.844-10.612,15.937-10.612,25.604v84.759c0,6.627-5.373,12-12,12Z" fill="#0068ec"/>
      </g>
      <g>
        <path d="M635.173,96.868c0,26.74-10.84,50.94-28.36,68.46l-16.99-17c13.18-13.18,21.35-31.38,21.35-51.46,0-40.15-32.67-72.82-72.82-72.82-13.72,0-26.57,3.82-37.54,10.45-5.08,3.06-9.75,6.73-13.92,10.9-13.19,13.19-21.35,31.39-21.35,51.47h-24c0-26.74,10.84-50.94,28.35-68.46,5.55-5.55,11.77-10.43,18.53-14.5C503.003,5.108,520.093,.048,538.353,.048c53.47,0,96.82,43.35,96.82,96.82Z" fill="#f83f35"/>
        <rect x="592.795" y="125.313" width="24" height="75.981" rx="12" ry="12" transform="translate(61.667 475.485) rotate(-45)" fill="#f83f35"/>
        <path d="M581.656,168.796c3.78,6.277,1.103,14.432-5.646,17.285-11.575,4.893-24.301,7.597-37.657,7.597-53.47,0-96.81-43.34-96.81-96.81l11.999-13.276,12.001,13.276c0,40.15,32.66,72.81,72.81,72.81,9.997,0,19.532-2.028,28.215-5.694,5.553-2.344,11.978-.351,15.087,4.812h0Z" fill="#f83f35"/>
      </g>
    </g>
  </g>
</svg>