<?xml version="1.0" encoding="UTF-8"?>
<svg id="b" data-name="Layer 2" xmlns="http://www.w3.org/2000/svg" viewBox="0 0 604.457 193.4">
  <g id="c" data-name="Layer 1">
    <g>
      <g>
        <path d="M239.935,156.977c-16.561,0-32.131-6.449-43.841-18.159l-8.761-8.761c-9.985-9.985-26.233-9.985-36.219,0l-8.761,8.761c-11.71,11.71-27.28,18.159-43.84,18.159s-32.13-6.449-43.841-18.159c-24.174-24.174-24.174-63.508,0-87.682,11.71-11.71,27.28-18.159,43.841-18.159s32.13,6.449,43.84,18.159l8.761,8.761c9.985,9.986,26.233,9.985,36.219,0l8.761-8.761c11.71-11.71,27.28-18.159,43.841-18.159s32.131,6.449,43.841,18.159,18.159,27.28,18.159,43.841-6.449,32.131-18.159,43.841c-11.71,11.71-27.28,18.159-43.841,18.159ZM98.513,56.977c-10.15,0-19.693,3.952-26.87,11.13-14.816,14.816-14.816,38.924,0,53.74,7.177,7.178,16.72,11.13,26.87,11.13s19.692-3.952,26.87-11.13l8.761-8.761c19.344-19.343,50.817-19.344,70.16,0l8.761,8.761c14.816,14.816,38.924,14.816,53.74,0,14.816-14.816,14.816-38.924,0-53.74s-38.924-14.816-53.74,0l-8.761,8.761c-19.344,19.342-50.816,19.344-70.16,0l-8.761-8.761c-7.177-7.178-16.72-11.13-26.87-11.13Z" fill="#0068ec"/>
        <path d="M12,156.977c-6.627,0-12-5.373-12-12V12C0,5.373,5.373,0,12,0s12,5.373,12,12V144.977c0,6.627-5.373,12-12,12Z" fill="#0068ec"/>
        <path d="M326.229,193.4c-6.627,0-12-5.373-12-12V96.642c0-33.204,27.014-60.218,60.219-60.218s60.218,27.014,60.218,60.218-27.014,60.218-60.218,60.218h-13.628c-6.627,0-12-5.373-12-12s5.373-12,12-12h13.628c19.971,0,36.218-16.247,36.218-36.218s-16.247-36.218-36.218-36.218-36.219,16.247-36.219,36.218v84.759c0,6.627-5.373,12-12,12Z" fill="#0068ec"/>
      </g>
      <g>
        <path d="M556.145,157.402c-6.627,0-12-5.373-12-12v-41.964c0-8.337-3.447-16.546-9.458-22.521-5.813-5.779-13.363-8.956-21.275-8.956-.059,0-.117,0-.176,0-16.703,.1-30.399,13.77-30.529,30.472-.063,7.993,3.108,15.626,8.931,21.493,5.974,6.021,14.191,9.475,22.545,9.475h6.118c6.627,0,12,5.373,12,12s-5.373,12-12,12h-6.118c-14.706,0-29.134-6.04-39.582-16.57-10.362-10.443-16.006-24.146-15.894-38.585,.233-29.754,24.631-54.106,54.387-54.284,.106,0,.215,0,.322,0,14.296,0,27.847,5.651,38.191,15.936,10.51,10.447,16.538,24.859,16.538,39.541v41.964c0,6.627-5.373,12-12,12Z" fill="#f68400"/>
        <circle cx="446.705" cy="145.402" r="12" fill="#f68400"/>
        <g>
          <path d="M592.457,157.402c-6.627,0-12-5.373-12-12V60.565c0-6.627,5.373-12,12-12s12,5.373,12,12v84.838c0,6.627-5.373,12-12,12Z" fill="#f68400"/>
          <circle cx="592.398" cy="27.527" r="12" fill="#f68400"/>
        </g>
      </g>
    </g>
  </g>
</svg>