<?xml version="1.0" encoding="UTF-8"?>
<svg id="b" data-name="Layer 2" xmlns="http://www.w3.org/2000/svg" viewBox="0 0 1067.268 249.338">
  <g id="c" data-name="Layer 1">
    <g>
      <g>
        <path d="M520.801,94.789c-10,0-19.401-3.894-26.472-10.965-7.071-7.071-10.965-16.473-10.965-26.473,0-10,3.894-19.402,10.965-26.473,14.597-14.597,38.348-14.597,52.945,0l5.29,5.29c2.921,2.921,6.804,4.53,10.935,4.53s8.014-1.609,10.935-4.53l5.29-5.29c14.597-14.596,38.349-14.596,52.946,0,14.597,14.597,14.597,38.349,0,52.946-14.597,14.597-38.349,14.597-52.946,0l-5.29-5.29c-2.921-2.921-6.804-4.529-10.935-4.529s-8.014,1.609-10.935,4.53h0l-5.29,5.29c-7.07,7.071-16.472,10.965-26.472,10.965Zm0-60.373c-5.876,0-11.751,2.236-16.225,6.71-8.947,8.947-8.947,23.504,0,32.451,4.334,4.334,10.096,6.721,16.225,6.721s11.891-2.386,16.225-6.721l5.291-5.29c5.657-5.658,13.18-8.775,21.182-8.775,8.002,0,15.525,3.116,21.183,8.774l5.29,5.29c8.947,8.947,23.504,8.947,32.451,0,8.947-8.947,8.947-23.504,0-32.451-8.947-8.947-23.504-8.946-32.451,0l-5.29,5.29c-5.658,5.658-13.181,8.775-21.183,8.775s-15.525-3.117-21.183-8.775l-5.29-5.29c-4.473-4.473-10.349-6.71-16.225-6.71Z" fill="#0068ec"/>
        <path d="M469.982,94.789c-4.002,0-7.246-3.244-7.246-7.246V7.246c0-4.002,3.244-7.246,7.246-7.246s7.246,3.244,7.246,7.246V87.543c0,4.002-3.244,7.246-7.246,7.246Z" fill="#0068ec"/>
        <path d="M656.999,116.953c-4.002,0-7.246-3.244-7.246-7.246V58.526c0-9.709,3.783-18.839,10.653-25.709,6.87-6.87,16-10.653,25.709-10.653,20.05,0,36.362,16.312,36.362,36.362s-16.312,36.362-36.362,36.362h-10.3c-4.002,0-7.246-3.244-7.246-7.246s3.244-7.246,7.246-7.246h10.3c12.059,0,21.87-9.811,21.87-21.87s-9.811-21.87-21.87-21.87c-5.838,0-11.329,2.276-15.462,6.409-4.133,4.133-6.408,9.623-6.408,15.461v51.181c0,4.002-3.244,7.246-7.246,7.246Z" fill="#0068ec"/>
      </g>
      <g>
        <path d="M219.22,225.325c-6.661,0-12.08-5.812-12.08-12.956v-60.687c0-32.274,17.018-50.783,46.69-50.783,24.125,0,40.06,12.393,44.868,34.897,.772,3.614-.035,7.369-2.215,10.305-2.235,3.01-5.564,4.735-9.133,4.735l-1.012-.022c-5.258-.089-9.724-3.976-11.12-9.67-2.641-10.759-9.837-16.214-21.388-16.214-14.95,0-22.53,9.001-22.53,26.752v60.687c0,7.144-5.419,12.956-12.08,12.956Z" fill="#f68400"/>
        <path d="M364.019,225.341c-33.291,0-57.454-25.321-57.454-60.209s24.163-60.212,57.454-60.212c20.076,0,37.335,9.206,47.354,25.258,2.38,3.813,2.586,8.529,.552,12.614-2.076,4.172-5.935,6.662-10.321,6.662h-.138c-3.943,0-7.5-1.982-9.514-5.302-5.862-9.658-16.04-15.199-27.925-15.201-18.204,0-33.041,16.186-33.081,36.082-.021,10.459,3.329,19.832,9.433,26.393,6.017,6.468,14.192,9.888,23.64,9.888,11.855,0,22.02-5.515,27.888-15.13,2.054-3.365,5.68-5.374,9.697-5.374,4.386,0,8.244,2.49,10.32,6.661,2.035,4.086,1.828,8.802-.552,12.616-10.017,16.049-27.277,25.255-47.353,25.255Z" fill="#f68400"/>
        <path d="M518.838,225.341c-6.661,0-12.08-5.812-12.08-12.956v-49.567c0-21.496-10.373-33.824-28.46-33.824-17.555,0-28.459,12.961-28.459,33.824v49.567c0,7.144-5.419,12.956-12.08,12.956s-12.08-5.812-12.08-12.956V81.305c0-7.144,5.419-12.956,12.08-12.956s12.08,5.812,12.08,12.956v41.212c0,.588,.445,1.066,.993,1.066h.439c.347,0,.67-.195,.85-.515,6.481-11.506,17.785-18.105,31.012-18.105,23.102,0,47.786,15.199,47.786,57.855v49.567c0,7.144-5.419,12.956-12.08,12.956Z" fill="#f68400"/>
        <path d="M598.569,225.341c-33.291,0-57.454-25.321-57.454-60.209s24.163-60.212,57.454-60.212c16.221,0,30.838,6.063,41.156,17.072,10.225,10.909,15.856,26.23,15.856,43.14,0,4.871-3.694,8.833-8.235,8.833h-79.761c-.549,0-.993,.477-.993,1.066v.471c0,.084,.01,.169,.028,.251,3.719,16.448,15.663,26.268,31.948,26.268,10.145,0,17.788-2.586,23.365-7.906,2.173-2.075,4.67-3.17,7.223-3.17h1.162c5.405,0,8.647,3.792,9.88,7.34,1.25,3.598,1.107,8.813-3.042,12.664-10.144,9.415-23.488,14.393-38.588,14.393Zm0-97.096c-15.446,0-26.843,8.603-31.269,23.605-.031,.104-.047,.212-.047,.321v.47c0,.588,.445,1.066,.993,1.066h60.645c.549,0,.993-.477,.993-1.066v-.47c0-.109-.016-.218-.047-.321-4.362-14.781-16.052-23.605-31.269-23.605Z" fill="#f68400"/>
        <path d="M708.29,225.341c-16.483,0-29.863-5.663-37.677-15.948-2.698-3.552-3.196-8.184-1.332-12.391,1.913-4.32,5.844-7.003,10.258-7.003h.872c3.754,0,7.285,2.079,9.446,5.56,3.005,4.843,9.227,7.402,17.994,7.402,17.878,0,20.548-9.231,20.548-14.734,0-8.99-10.314-10.407-22.257-12.049-17.983-2.472-40.364-5.548-40.364-34.378,0-22.06,16.996-36.881,42.292-36.881,14.758,0,27.058,5.143,34.635,14.481,2.901,3.575,3.559,8.488,1.72,12.823-1.859,4.377-5.79,7.097-10.261,7.097-4.083,0-7.745-1.876-9.796-5.02-2.946-4.514-8.579-7-15.86-7-11.49,0-18.35,5.421-18.35,14.501s10.43,10.604,22.506,12.417c17.873,2.683,40.117,6.021,40.117,34.009,0,22.198-17.879,37.114-44.492,37.114Z" fill="#f68400"/>
        <path d="M806.371,225.341c-27.576,0-43.392-17.049-43.392-46.777V81.437c0-7.145,5.419-12.957,12.08-12.957s12.08,5.812,12.08,12.957v22.593c0,.588,.445,1.066,.993,1.066h44.165c5.995,0,10.871,5.231,10.871,11.661s-4.877,11.661-10.871,11.661h-44.165c-.549,0-.993,.477-.993,1.066v49.081c0,18.803,10.458,22.749,19.231,22.749,9.27,0,15.273-4.158,17.841-12.36,1.747-5.577,6.393-9.323,11.563-9.323h.231c3.851,0,7.388,1.903,9.703,5.22,2.265,3.244,2.959,7.311,1.906,11.159-5.177,18.915-19.826,29.332-41.245,29.332Z" fill="#f68400"/>
        <path d="M870.018,225.325c-6.372,0-11.555-5.56-11.555-12.393v-60.98c0-32.156,16.954-50.598,46.515-50.598,24.038,0,39.915,12.35,44.706,34.774,.769,3.599-.035,7.339-2.205,10.26-2.227,2.998-5.545,4.717-9.104,4.717l-1.015-.016c-5.228-.094-9.676-3.966-11.066-9.634-2.631-10.722-9.803-16.158-21.315-16.158-14.892,0-22.444,8.968-22.444,26.656v60.98c0,6.833-5.183,12.393-11.554,12.393h-.962Z" fill="#f68400"/>
        <path d="M1050.421,122.473c-10.526-11.233-24.333-17.419-38.88-17.419h-.327c-30.298,.194-55.139,26.815-55.377,59.343-.115,15.779,5.633,30.756,16.183,42.172,10.645,11.517,25.339,18.122,40.316,18.122h12.452c6.774,0,12.265-5.492,12.265-12.266h0c0-6.774-5.491-12.265-12.265-12.265h-12.452c-8.931,0-17.714-3.962-24.098-10.869-6.23-6.741-9.623-15.514-9.554-24.703,.139-19.185,14.792-34.886,32.655-35.002h.198c8.472-.001,16.562,3.653,22.776,10.287,6.423,6.853,10.107,16.273,10.107,25.842v46.711c0,6.764,5.125,12.266,11.424,12.266s11.424-5.502,11.424-12.266v-46.711c0-16.053-6.141-31.814-16.847-43.241Z" fill="#f68400"/>
      </g>
      <path d="M96.67,56.008C43.28,56.008,0,99.288,0,152.678s43.28,96.66,96.67,96.66,96.66-43.28,96.66-96.66S150.05,56.008,96.67,56.008Zm0,169.33c-40.07,0-72.67-32.59-72.67-72.66S56.6,80.008,96.67,80.008s72.66,32.6,72.66,72.67-32.6,72.66-72.66,72.66Z" fill="#f68400"/>
    </g>
  </g>
</svg>